<?xml version="1.0" encoding="utf-8"?>
<!-- Generator: Adobe Illustrator 16.0.0, SVG Export Plug-In . SVG Version: 6.00 Build 0)  -->
<!DOCTYPE svg PUBLIC "-//W3C//DTD SVG 1.1//EN" "http://www.w3.org/Graphics/SVG/1.1/DTD/svg11.dtd">
<svg version="1.1" id="RAW_ICONS_-_SQUARE__x2F__ROUNDED__x2F__CIRCLE"
	 xmlns="http://www.w3.org/2000/svg" xmlns:xlink="http://www.w3.org/1999/xlink" x="0px" y="0px" width="34.25px" height="34.75px"
	 viewBox="0 0 34.25 34.75" style="enable-background:new 0 0 34.25 34.75;" xml:space="preserve">
<path d="M17.153,1.371c-8.836,0-16,7.164-16,16c0,8.838,7.164,16,16,16c8.837,0,16-7.162,16-16
	C33.153,8.535,25.99,1.371,17.153,1.371z M20.581,17.377h-2.242c0,3.582,0,7.994,0,7.994h-3.322c0,0,0-4.367,0-7.994h-1.58v-2.824
	h1.58v-1.828c0-1.309,0.621-3.354,3.353-3.354l2.461,0.01v2.742c0,0-1.496,0-1.786,0c-0.291,0-0.705,0.145-0.705,0.77v1.66h2.533
	L20.581,17.377z"/>
</svg>
