<?xml version="1.0" encoding="utf-8"?>
<!-- Generator: Adobe Illustrator 16.0.0, SVG Export Plug-In . SVG Version: 6.00 Build 0)  -->
<!DOCTYPE svg PUBLIC "-//W3C//DTD SVG 1.1//EN" "http://www.w3.org/Graphics/SVG/1.1/DTD/svg11.dtd">
<svg version="1.1" id="RAW_ICONS_-_SQUARE__x2F__ROUNDED__x2F__CIRCLE"
	 xmlns="http://www.w3.org/2000/svg" xmlns:xlink="http://www.w3.org/1999/xlink" x="0px" y="0px" width="34.25px" height="34.75px"
	 viewBox="0 0 34.25 34.75" style="enable-background:new 0 0 34.25 34.75;" xml:space="preserve">
<path d="M17.25,1c-8.84,0-16,7.16-16,16s7.16,16,16,16c8.84,0,16-7.16,16-16S26.09,1,17.25,1z M19.56,19.35
	c-0.31,1.08-0.9,2.08-1.73,2.84c-0.19,0.18-0.4,0.35-0.62,0.5c-0.33,0.221-0.68,0.42-1.04,0.58c-0.37,0.15-0.75,0.281-1.14,0.371
	c-0.14,0.029-0.28,0.059-0.42,0.09c-0.6,0.09-1.2,0.129-1.79,0.1c-0.28-0.029-0.57-0.061-0.85-0.121
	c-0.15-0.029-0.29-0.059-0.44-0.1c-0.45-0.119-0.89-0.289-1.31-0.5C9.8,22.9,9.4,22.65,9.04,22.35c-0.1-0.08-0.19-0.16-0.28-0.24
	H8.75c-0.09-0.09-0.18-0.17-0.26-0.25c-0.53-0.52-0.97-1.129-1.31-1.789h0.01v-0.01C7,19.709,6.86,19.34,6.74,18.959
	c-0.07-0.26-0.13-0.52-0.18-0.779c-0.04-0.26-0.07-0.529-0.09-0.789c-0.04-0.58,0-1.17,0.12-1.75c0.01-0.031,0.01-0.051,0.02-0.08
	c0.05-0.271,0.13-0.531,0.22-0.791c0.1-0.289,0.22-0.57,0.35-0.84l0.01-0.01c0.8-1.58,2.21-2.82,3.87-3.391
	c1.48-0.51,3.14-0.5,4.61,0.041c0.21,0.08,0.41,0.16,0.6,0.26c0.16,0.08,0.32,0.16,0.47,0.26c0.12,0.07,0.23,0.141,0.34,0.211
	c0.02,0.01,0.05,0.029,0.07,0.049c0.11,0.08,0.23,0.17,0.34,0.26c0.14,0.1,0.27,0.211,0.39,0.33c-0.22,0.23-0.45,0.441-0.67,0.67
	c-0.42,0.42-0.84,0.84-1.26,1.26c-0.41-0.398-0.92-0.699-1.47-0.869c-0.65-0.199-1.35-0.23-2.01-0.08
	c-0.72,0.15-1.4,0.52-1.94,1.029c-0.04,0.031-0.07,0.061-0.11,0.102v0.01c-0.45,0.459-0.79,1.01-0.99,1.6v0.01
	c-0.29,0.859-0.29,1.801,0,2.66c0.28,0.84,0.83,1.59,1.56,2.1c0,0,0.01,0,0.01,0.01c0.26,0.18,0.53,0.33,0.82,0.441
	c0.09,0.039,0.19,0.078,0.29,0.109c0.14,0.039,0.27,0.08,0.41,0.109c0.1,0.02,0.2,0.031,0.3,0.041c0.3,0.029,0.61,0.029,0.92,0.01
	c0.14-0.01,0.28-0.02,0.41-0.051c0.31-0.049,0.6-0.141,0.88-0.26c0.09-0.039,0.19-0.09,0.28-0.131c0.12-0.068,0.23-0.139,0.35-0.209
	c0.18-0.119,0.34-0.26,0.49-0.41c0.08-0.08,0.15-0.16,0.22-0.24c0.13-0.17,0.25-0.359,0.35-0.549c0.1-0.191,0.18-0.391,0.24-0.592
	c0.02-0.109,0.05-0.209,0.07-0.318v-0.01H13.3v-2.66h6.44C19.95,16.93,19.9,18.17,19.56,19.35z M28.05,18.141h-1.84v1.84h-2.29
	v-1.84h-1.83v-2.281h1.83v-1.84h2.29v1.84h1.84V18.141z"/>
</svg>
