<?xml version="1.0" encoding="utf-8"?>
<!-- Generator: Adobe Illustrator 16.0.0, SVG Export Plug-In . SVG Version: 6.00 Build 0)  -->
<!DOCTYPE svg PUBLIC "-//W3C//DTD SVG 1.1//EN" "http://www.w3.org/Graphics/SVG/1.1/DTD/svg11.dtd">
<svg version="1.1" id="RAW_ICONS_-_SQUARE__x2F__ROUNDED__x2F__CIRCLE"
	 xmlns="http://www.w3.org/2000/svg" xmlns:xlink="http://www.w3.org/1999/xlink" x="0px" y="0px" width="34.25px" height="34.75px"
	 viewBox="0 0 34.25 34.75" style="enable-background:new 0 0 34.25 34.75;" xml:space="preserve">
<g>
	<path d="M18.209,15.824v-0.033c-0.006,0.012-0.015,0.023-0.022,0.033H18.209z"/>
	<path d="M17.25,1c-8.837,0-16,7.164-16,16c0,8.838,7.163,16,16,16c8.836,0,16-7.162,16-16C33.25,8.164,26.086,1,17.25,1z
		 M12.883,24.646H9.452V14.33h3.431V24.646z M11.167,12.92h-0.022c-1.15,0-1.895-0.793-1.895-1.783c0-1.012,0.768-1.783,1.939-1.783
		c1.174,0,1.896,0.771,1.918,1.783C13.107,12.127,12.363,12.92,11.167,12.92z M25.25,24.646h-3.43v-5.52
		c0-1.387-0.496-2.334-1.738-2.334c-0.946,0-1.512,0.641-1.76,1.256c-0.091,0.221-0.113,0.525-0.113,0.836v5.762H14.78
		c0,0,0.044-9.35,0-10.316h3.429v1.461c0.457-0.705,1.271-1.703,3.092-1.703c2.256,0,3.949,1.473,3.949,4.643V24.646z"/>
</g>
</svg>
