<?xml version="1.0" encoding="utf-8"?>
<!-- Generator: Adobe Illustrator 16.0.0, SVG Export Plug-In . SVG Version: 6.00 Build 0)  -->
<!DOCTYPE svg PUBLIC "-//W3C//DTD SVG 1.1//EN" "http://www.w3.org/Graphics/SVG/1.1/DTD/svg11.dtd">
<svg version="1.1" id="Layer_1" xmlns="http://www.w3.org/2000/svg" xmlns:xlink="http://www.w3.org/1999/xlink" x="0px" y="0px"
	 width="297.75px" height="83.078px" viewBox="0 0 297.75 83.078" style="enable-background:new 0 0 297.75 83.078;"
	 xml:space="preserve">
<style type="text/css">
<![CDATA[
	.st0{fill:#231F20;}
]]>
</style>
<g>
	<g>
		<path class="st0" d="M51.002,53.25H40.43L14.08,23.087V53.25H1.252V1.166h10.65l26.352,31.096V1.166h12.748V53.25z"/>
		<path class="st0" d="M113.814,27.287c0,15.155-12.201,27.13-27.75,27.13c-15.547,0-27.752-11.975-27.752-27.13
			C58.312,12.051,70.518,0,86.064,0C101.613,0,113.814,12.051,113.814,27.287z M100.99,27.287c0-8.941-6.453-15.548-14.926-15.548
			s-14.924,6.606-14.924,15.548c0,8.862,6.451,15.39,14.924,15.39S100.99,36.149,100.99,27.287z"/>
		<path class="st0" d="M181.133,53.25h-12.436V25.497L154.086,53.25h-5.908l-14.691-27.908V53.25h-12.438V1.166h12.594
			l17.486,33.038l17.492-33.038h12.512V53.25z"/>
		<path class="st0" d="M220.555,1.17h-13.141l-21.77,52.08h56.67L220.555,1.17z M212.624,19.29h2.87l8.65,21.51h-19.71
			L212.624,19.29z"/>
		<path class="st0" d="M268.219,1.166c17.18,0,28.529,10.573,28.529,26.042s-11.35,26.042-28.529,26.042h-20.598V1.166H268.219z
			 M267.754,42.133c9.717,0,16.092-5.908,16.092-14.925s-6.375-14.925-16.092-14.925h-7.305v29.85H267.754z"/>
	</g>
	<g>
		<path class="st0" d="M76.458,76.528c-0.655,3.555-3.511,5.627-7.147,5.627c-4.209,0-7.529-3.236-7.529-7.402
			c0-4.145,3.32-7.402,7.529-7.402c3.489,0,6.45,2.072,7.127,5.436l-3.427,0.803c-0.443-2.051-1.882-3.045-3.7-3.045
			c-2.242,0-4.04,1.797-4.04,4.209c0,2.41,1.798,4.229,4.04,4.229c1.797,0,3.235-1.014,3.722-3.129L76.458,76.528z"/>
		<path class="st0" d="M93.985,74.774c0,4.123-3.321,7.381-7.551,7.381s-7.55-3.258-7.55-7.381c0-4.146,3.32-7.424,7.55-7.424
			S93.985,70.628,93.985,74.774z M90.495,74.774c0-2.434-1.755-4.23-4.061-4.23c-2.305,0-4.061,1.797-4.061,4.23
			c0,2.41,1.756,4.188,4.061,4.188C88.74,78.962,90.495,77.185,90.495,74.774z"/>
		<path class="st0" d="M109.948,81.837h-2.876l-7.17-8.205v8.205h-3.489v-14.17h2.897l7.169,8.461v-8.461h3.469V81.837z"/>
		<path class="st0" d="M124.239,71.454l-3.426,0.697c-0.254-1.332-1.354-1.988-2.475-1.988c-1.163,0-1.903,0.635-1.903,1.438
			c0,0.572,0.254,0.994,1.143,1.186l2.939,0.654c2.453,0.551,3.892,1.883,3.892,4.125c0,3.023-2.687,4.59-5.837,4.59
			c-3.194,0-5.816-1.523-6.197-4.293l3.596-0.699c0.359,1.459,1.375,2.094,2.791,2.094c1.312,0,2.094-0.592,2.094-1.459
			c0-0.635-0.296-1.037-1.311-1.248l-2.961-0.635c-2.03-0.465-3.807-1.521-3.807-4.102c0-2.75,2.284-4.463,5.604-4.463
			C121.469,67.351,123.711,68.874,124.239,71.454z"/>
		<path class="st0" d="M134.895,70.714v11.123h-3.469V70.714h-4.59v-3.047h12.648v3.047H134.895z"/>
		<path class="st0" d="M150.688,81.837l-4.271-4.863H145.4v4.863h-3.489v-14.17h7.17c3.066,0,5.097,1.861,5.097,4.633
			c0,2.326-1.438,3.996-3.723,4.504l4.441,5.033H150.688z M148.7,74.054c1.247,0,2.051-0.676,2.051-1.713
			c0-1.014-0.804-1.691-2.051-1.691h-3.3v3.404H148.7z"/>
		<path class="st0" d="M170.033,75.45c0,4.061-2.517,6.705-6.281,6.705c-3.849,0-6.429-2.645-6.429-6.705v-7.783h3.489v7.783
			c0,2.158,1.163,3.49,2.939,3.49c1.671,0,2.792-1.332,2.792-3.49v-7.783h3.489V75.45z"/>
		<path class="st0" d="M187.137,76.528c-0.655,3.555-3.511,5.627-7.147,5.627c-4.209,0-7.529-3.236-7.529-7.402
			c0-4.145,3.32-7.402,7.529-7.402c3.489,0,6.45,2.072,7.127,5.436l-3.427,0.803c-0.443-2.051-1.882-3.045-3.7-3.045
			c-2.242,0-4.04,1.797-4.04,4.209c0,2.41,1.798,4.229,4.04,4.229c1.797,0,3.235-1.014,3.722-3.129L187.137,76.528z"/>
		<path class="st0" d="M197.621,70.714v11.123h-3.467V70.714h-4.59v-3.047h12.646v3.047H197.621z"/>
		<path class="st0" d="M208.107,81.837h-3.469V67.739h3.469V81.837z"/>
		<path class="st0" d="M225.635,74.774c0,4.123-3.321,7.381-7.551,7.381s-7.55-3.258-7.55-7.381c0-4.146,3.32-7.424,7.55-7.424
			S225.635,70.628,225.635,74.774z M222.145,74.774c0-2.434-1.755-4.23-4.061-4.23c-2.305,0-4.061,1.797-4.061,4.23
			c0,2.41,1.756,4.188,4.061,4.188C220.39,78.962,222.145,77.185,222.145,74.774z"/>
		<path class="st0" d="M241.597,81.837h-2.876l-7.17-8.205v8.205h-3.489v-14.17h2.897l7.169,8.461v-8.461h3.469V81.837z"/>
	</g>
</g>
</svg>
