<?xml version="1.0" encoding="utf-8"?>
<!-- Generator: Adobe Illustrator 16.0.0, SVG Export Plug-In . SVG Version: 6.00 Build 0)  -->
<!DOCTYPE svg PUBLIC "-//W3C//DTD SVG 1.1//EN" "http://www.w3.org/Graphics/SVG/1.1/DTD/svg11.dtd">
<svg version="1.1" id="Layer_1" xmlns="http://www.w3.org/2000/svg" xmlns:xlink="http://www.w3.org/1999/xlink" x="0px" y="0px"
	 width="150px" height="20px" viewBox="0 0 150 20" style="enable-background:new 0 0 150 20;" xml:space="preserve">
<style type="text/css">
<![CDATA[
	.st0{fill:#000000;}
]]>
</style>
<g>
<polygon class="st0" points="130.797,1.5 130.797,4.158 132.203,4.158 132.203,17.84 135.031,17.84 135.031,6.411 142.52,17.84 
	146.004,17.84 134.865,1.5 "/>
<path class="st0" d="M40.304,1.498h-6.443v16.34h2.872v-4.651h3.245c3.594,0,6.536-2.215,6.536-5.88V7.26
	C46.514,3.968,44.133,1.498,40.304,1.498z M43.596,7.376c0,1.704-1.354,3.218-3.525,3.218h-3.338V4.111h3.338
	c2.147,0,3.525,1.305,3.525,3.219V7.376z"/>
<rect x="87.916" y="1.5" class="st0" width="2.871" height="16.337"/>
<polygon class="st0" points="58.499,4.158 63.681,4.158 63.681,17.838 66.575,17.838 66.575,4.158 71.757,4.158 71.757,1.498 
	58.499,1.498 "/>
<path class="st0" d="M14.199,1.468C9.671,1.468,6,5.139,6,9.667c0,4.527,3.671,8.198,8.199,8.198s8.204-3.671,8.204-8.198
	C22.402,5.139,18.727,1.468,14.199,1.468z M14.199,15.171c-3.035,0-5.503-2.469-5.503-5.504s2.468-5.504,5.503-5.504
	c3.034,0,5.509,2.469,5.509,5.504S17.233,15.171,14.199,15.171z"/>
<path class="st0" d="M113.508,1.478c-4.518,0-8.182,3.663-8.182,8.181c0,4.516,3.664,8.179,8.182,8.179s8.186-3.663,8.186-8.179
	C121.693,5.141,118.025,1.478,113.508,1.478z M113.508,15.149c-3.027,0-5.492-2.464-5.492-5.49c0-3.029,2.465-5.493,5.492-5.493
	s5.496,2.463,5.496,5.493C119.004,12.686,116.535,15.149,113.508,15.149z"/>
<rect x="143.193" y="1.5" class="st0" width="2.811" height="2.811"/>
</g>
</svg>
