<?xml version="1.0" encoding="utf-8"?>
<!-- Generator: Adobe Illustrator 16.0.0, SVG Export Plug-In . SVG Version: 6.00 Build 0)  -->
<!DOCTYPE svg PUBLIC "-//W3C//DTD SVG 1.1//EN" "http://www.w3.org/Graphics/SVG/1.1/DTD/svg11.dtd">
<svg version="1.1" id="Layer_1" xmlns="http://www.w3.org/2000/svg" xmlns:xlink="http://www.w3.org/1999/xlink" x="0px" y="0px"
	 width="21.625px" height="21.5px" viewBox="0 0 21.625 21.5" style="enable-background:new 0 0 21.625 21.5;" xml:space="preserve"
	>
<style type="text/css">
<![CDATA[
	.st0{fill:#FFFFFF;}
]]>
</style>
<path class="st0" d="M17.117,4.017c-0.447-0.447-4.411-4.321-5.952-2.78l-1.073,1.073l0,0L1.8,10.602
	c-0.014,0.014-0.026,0.03-0.039,0.044c-0.008,0.009-0.016,0.017-0.022,0.026c-0.025,0.032-0.049,0.067-0.066,0.103
	c-0.006,0.01-0.01,0.02-0.015,0.03c-0.013,0.028-0.025,0.056-0.034,0.085c-0.005,0.016-0.01,0.032-0.014,0.047
	c-0.008,0.029-0.012,0.059-0.016,0.089c0,0.011-0.005,0.021-0.006,0.031L0.935,19.42c-0.016,0.211,0.061,0.418,0.21,0.568
	c0.15,0.15,0.357,0.227,0.568,0.21l8.363-0.655c0.007,0,0.014-0.003,0.021-0.004c0.034-0.004,0.067-0.01,0.101-0.019
	c0.012-0.003,0.024-0.006,0.037-0.01c0.037-0.011,0.071-0.024,0.105-0.042c0.004-0.001,0.01-0.003,0.015-0.006
	c0.037-0.019,0.072-0.042,0.105-0.068c0.011-0.008,0.02-0.017,0.03-0.025c0.014-0.013,0.028-0.022,0.042-0.037l8.293-8.293l0,0
	l1.073-1.073C21.439,8.427,17.564,4.464,17.117,4.017z M3.611,17.522c-0.285-0.285-0.681-0.394-1.05-0.323l0.411-5.232
	c0.274,0.083,0.561,0.209,0.752,0.401c0.37,0.37,0.438,1.058,0.433,1.292c0,0.012,0.003,0.024,0.002,0.036
	c0.001,0.026,0.003,0.052,0.007,0.078c0.002,0.019,0.004,0.038,0.008,0.057c0.007,0.034,0.017,0.067,0.029,0.1
	c0.008,0.021,0.017,0.041,0.028,0.061c0.01,0.022,0.02,0.044,0.033,0.064c0.011,0.016,0.021,0.033,0.033,0.049
	c0.015,0.02,0.031,0.04,0.048,0.058c0.009,0.011,0.016,0.023,0.026,0.033c0.009,0.009,0.021,0.017,0.031,0.025
	c0.019,0.017,0.039,0.034,0.06,0.049c0.016,0.012,0.032,0.021,0.049,0.031c0.02,0.011,0.038,0.022,0.058,0.032
	c0.009,0.004,0.017,0.011,0.026,0.014c0.01,0.004,0.021,0.007,0.03,0.011c0.013,0.004,0.025,0.009,0.038,0.012
	c0.021,0.008,0.042,0.013,0.062,0.018c0.014,0.003,0.028,0.006,0.043,0.008c0.02,0.003,0.039,0.007,0.059,0.008
	c0.006,0,0.012,0.002,0.019,0.001c0.269,0.015,1.057,0.14,1.449,0.532c0.37,0.37,0.438,1.058,0.433,1.294
	c0,0.011,0.003,0.023,0.002,0.034c0.002,0.026,0.003,0.053,0.006,0.078c0.003,0.019,0.004,0.038,0.008,0.057
	c0.007,0.036,0.018,0.07,0.03,0.104c0.008,0.02,0.016,0.037,0.026,0.055c0.011,0.022,0.022,0.044,0.034,0.065
	c0.01,0.016,0.021,0.033,0.032,0.048c0.015,0.021,0.031,0.04,0.048,0.058c0.009,0.011,0.015,0.022,0.025,0.032
	s0.022,0.017,0.032,0.026c0.02,0.017,0.039,0.034,0.06,0.049c0.015,0.011,0.032,0.021,0.049,0.032
	c0.019,0.011,0.038,0.021,0.057,0.031c0.009,0.004,0.017,0.011,0.026,0.015c0.01,0.003,0.021,0.006,0.03,0.011
	c0.013,0.003,0.025,0.008,0.038,0.012c0.021,0.007,0.042,0.013,0.062,0.018c0.014,0.003,0.029,0.006,0.043,0.008
	c0.02,0.003,0.039,0.006,0.059,0.007c0.006,0.001,0.013,0.003,0.019,0.002c0.27,0.015,1.058,0.14,1.45,0.532
	c0.173,0.173,0.279,0.417,0.344,0.651l-5.274,0.412C4.004,18.203,3.896,17.808,3.611,17.522z M14.719,7.96l-6.827,6.827
	c-0.127-0.303-0.311-0.608-0.575-0.873c-0.295-0.295-0.653-0.5-1.003-0.641l6.859-6.858L14.719,7.96z M17.288,10.529l-6.826,6.827
	c-0.127-0.302-0.311-0.608-0.575-0.873c-0.295-0.294-0.653-0.499-1.002-0.64l6.859-6.858L17.288,10.529z M5.322,12.216
	c-0.126-0.302-0.31-0.607-0.574-0.872c-0.295-0.295-0.653-0.499-1.002-0.641l6.858-6.859l1.544,1.544L5.322,12.216z M16.093,5.041
	c1.951,1.951,2.72,3.517,2.717,3.966l-0.497,0.497l-2.057-2.057l-2.569-2.57L11.63,2.821l0.497-0.497
	C12.576,2.322,14.142,3.09,16.093,5.041z"/>
</svg>
